STARTFONT 2.1
COMMENT screen font, 8 x 16 pixels
FONT -misc-fixed-medium-r-normal--16-140-75-75-c-80-iso8859-2
SIZE 16 75 75
FONTBOUNDINGBOX 8 16 0 -3
STARTPROPERTIES 25
FONT_ASCENT 13
FONT_DESCENT 3
DEFAULT_CHAR 0
FONTNAME_REGISTRY ""
FOUNDRY "Misc"
FAMILY_NAME "Fixed"
WEIGHT_NAME "Medium"
SLANT "R"
SETWIDTH_NAME "Normal"
ADD_STYLE_NAME ""
PIXEL_SIZE 16
POINT_SIZE 140
RESOLUTION_X 75
RESOLUTION_Y 75
SPACING "C"
AVERAGE_WIDTH 80
CHARSET_REGISTRY "ISO8859"
CHARSET_ENCODING "2"
COPYRIGHT "Libor Skarvada, libor@informatics.muni.cz"
FONT "-misc-fixed-medium-r-normal--16-140-75-75-c-80-iso8859-2"
WEIGHT 10
RESOLUTION 104
CAP_HEIGHT 10
X_HEIGHT 7
QUAD_WIDTH 8
ENDPROPERTIES
CHARS 224
STARTCHAR 0
ENCODING 0
SWIDTH 480 0
DWIDTH 8 0
BBX 1 1 0 -3
BITMAP
00
ENDCHAR
STARTCHAR 1
ENCODING 1
SWIDTH 480 0
DWIDTH 8 0
BBX 7 8 0 1
BITMAP
10
38
7c
fe
fe
7c
38
10
ENDCHAR
STARTCHAR 2
ENCODING 2
SWIDTH 480 0
DWIDTH 8 0
BBX 8 16 0 -3
BITMAP
aa
55
aa
55
aa
55
aa
55
aa
55
aa
55
aa
55
aa
55
ENDCHAR
STARTCHAR 3
ENCODING 3
SWIDTH 480 0
DWIDTH 8 0
BBX 7 11 0 -2
BITMAP
88
88
f8
88
88
00
3e
08
08
08
08
ENDCHAR
STARTCHAR 4
ENCODING 4
SWIDTH 480 0
DWIDTH 8 0
BBX 7 11 0 -2
BITMAP
f0
80
e0
80
80
00
1e
10
1c
10
10
ENDCHAR
STARTCHAR 5
ENCODING 5
SWIDTH 480 0
DWIDTH 8 0
BBX 7 11 0 -2
BITMAP
70
80
80
80
70
00
1c
12
1c
14
12
ENDCHAR
STARTCHAR 6
ENCODING 6
SWIDTH 480 0
DWIDTH 8 0
BBX 7 11 0 -2
BITMAP
80
80
80
80
f0
00
1e
10
1c
10
10
ENDCHAR
STARTCHAR 7
ENCODING 7
SWIDTH 480 0
DWIDTH 8 0
BBX 4 4 2 3
BITMAP
60
90
90
60
ENDCHAR
STARTCHAR 8
ENCODING 8
SWIDTH 480 0
DWIDTH 8 0
BBX 5 7 1 2
BITMAP
20
20
f8
20
20
00
f8
ENDCHAR
STARTCHAR 9
ENCODING 9
SWIDTH 480 0
DWIDTH 8 0
BBX 7 11 0 -2
BITMAP
88
c8
a8
98
88
00
10
10
10
10
1e
ENDCHAR
STARTCHAR 10
ENCODING 10
SWIDTH 480 0
DWIDTH 8 0
BBX 7 11 0 -2
BITMAP
88
88
50
50
20
00
3e
08
08
08
08
ENDCHAR
STARTCHAR 11
ENCODING 11
SWIDTH 480 0
DWIDTH 8 0
BBX 4 8 0 5
BITMAP
10
10
10
10
10
10
10
f0
ENDCHAR
STARTCHAR 12
ENCODING 12
SWIDTH 480 0
DWIDTH 8 0
BBX 4 9 0 -3
BITMAP
f0
10
10
10
10
10
10
10
10
ENDCHAR
STARTCHAR 13
ENCODING 13
SWIDTH 480 0
DWIDTH 8 0
BBX 5 9 3 -3
BITMAP
f8
80
80
80
80
80
80
80
80
ENDCHAR
STARTCHAR 14
ENCODING 14
SWIDTH 480 0
DWIDTH 8 0
BBX 5 8 3 5
BITMAP
80
80
80
80
80
80
80
f8
ENDCHAR
STARTCHAR 15
ENCODING 15
SWIDTH 480 0
DWIDTH 8 0
BBX 8 16 0 -3
BITMAP
10
10
10
10
10
10
10
ff
10
10
10
10
10
10
10
10
ENDCHAR
STARTCHAR 16
ENCODING 16
SWIDTH 480 0
DWIDTH 8 0
BBX 8 1 0 9
BITMAP
ff
ENDCHAR
STARTCHAR 17
ENCODING 17
SWIDTH 480 0
DWIDTH 8 0
BBX 8 1 0 7
BITMAP
ff
ENDCHAR
STARTCHAR 18
ENCODING 18
SWIDTH 480 0
DWIDTH 8 0
BBX 8 1 0 5
BITMAP
ff
ENDCHAR
STARTCHAR 19
ENCODING 19
SWIDTH 480 0
DWIDTH 8 0
BBX 8 1 0 3
BITMAP
ff
ENDCHAR
STARTCHAR 20
ENCODING 20
SWIDTH 480 0
DWIDTH 8 0
BBX 8 1 0 1
BITMAP
ff
ENDCHAR
STARTCHAR 21
ENCODING 21
SWIDTH 480 0
DWIDTH 8 0
BBX 5 16 3 -3
BITMAP
80
80
80
80
80
80
80
f8
80
80
80
80
80
80
80
80
ENDCHAR
STARTCHAR 22
ENCODING 22
SWIDTH 480 0
DWIDTH 8 0
BBX 4 16 0 -3
BITMAP
10
10
10
10
10
10
10
f0
10
10
10
10
10
10
10
10
ENDCHAR
STARTCHAR 23
ENCODING 23
SWIDTH 480 0
DWIDTH 8 0
BBX 8 8 0 5
BITMAP
10
10
10
10
10
10
10
ff
ENDCHAR
STARTCHAR 24
ENCODING 24
SWIDTH 480 0
DWIDTH 8 0
BBX 8 9 0 -3
BITMAP
ff
10
10
10
10
10
10
10
10
ENDCHAR
STARTCHAR 25
ENCODING 25
SWIDTH 480 0
DWIDTH 8 0
BBX 1 16 3 -3
BITMAP
80
80
80
80
80
80
80
80
80
80
80
80
80
80
80
80
ENDCHAR
STARTCHAR 26
ENCODING 26
SWIDTH 480 0
DWIDTH 8 0
BBX 6 9 1 1
BITMAP
04
18
60
80
60
18
04
00
fc
ENDCHAR
STARTCHAR 27
ENCODING 27
SWIDTH 480 0
DWIDTH 8 0
BBX 6 9 1 1
BITMAP
80
60
18
04
18
60
80
00
fc
ENDCHAR
STARTCHAR 28
ENCODING 28
SWIDTH 480 0
DWIDTH 8 0
BBX 7 7 0 0
BITMAP
7e
a8
28
28
28
28
c6
ENDCHAR
STARTCHAR 29
ENCODING 29
SWIDTH 480 0
DWIDTH 8 0
BBX 7 8 0 0
BITMAP
02
04
fe
18
30
fe
40
80
ENDCHAR
STARTCHAR 30
ENCODING 30
SWIDTH 480 0
DWIDTH 8 0
BBX 7 11 0 -1
BITMAP
18
24
20
20
f8
20
20
20
62
bc
c0
ENDCHAR
STARTCHAR 31
ENCODING 31
SWIDTH 480 0
DWIDTH 8 0
BBX 2 2 3 2
BITMAP
c0
c0
ENDCHAR
STARTCHAR 32
ENCODING 32
SWIDTH 480 0
DWIDTH 8 0
BBX 1 1 0 -3
BITMAP
00
ENDCHAR
STARTCHAR 33
ENCODING 33
SWIDTH 480 0
DWIDTH 8 0
BBX 1 10 3 0
BITMAP
80
80
80
80
80
80
80
00
80
80
ENDCHAR
STARTCHAR 34
ENCODING 34
SWIDTH 480 0
DWIDTH 8 0
BBX 4 4 2 8
BITMAP
90
90
90
90
ENDCHAR
STARTCHAR 35
ENCODING 35
SWIDTH 480 0
DWIDTH 8 0
BBX 6 10 1 -1
BITMAP
24
24
24
fc
48
48
fc
90
90
90
ENDCHAR
STARTCHAR 36
ENCODING 36
SWIDTH 480 0
DWIDTH 8 0
BBX 7 10 0 0
BITMAP
10
7c
92
90
70
1c
12
92
7c
10
ENDCHAR
STARTCHAR 37
ENCODING 37
SWIDTH 480 0
DWIDTH 8 0
BBX 7 10 0 0
BITMAP
62
94
94
68
10
10
2c
52
52
8c
ENDCHAR
STARTCHAR 38
ENCODING 38
SWIDTH 480 0
DWIDTH 8 0
BBX 7 10 0 0
BITMAP
38
44
44
44
38
72
8a
84
8c
72
ENDCHAR
STARTCHAR 39
ENCODING 39
SWIDTH 480 0
DWIDTH 8 0
BBX 2 4 3 8
BITMAP
c0
40
40
80
ENDCHAR
STARTCHAR 40
ENCODING 40
SWIDTH 480 0
DWIDTH 8 0
BBX 3 12 3 -1
BITMAP
20
40
40
80
80
80
80
80
80
40
40
20
ENDCHAR
STARTCHAR 41
ENCODING 41
SWIDTH 480 0
DWIDTH 8 0
BBX 3 12 2 -1
BITMAP
80
40
40
20
20
20
20
20
20
40
40
80
ENDCHAR
STARTCHAR 42
ENCODING 42
SWIDTH 480 0
DWIDTH 8 0
BBX 7 7 0 1
BITMAP
10
92
54
38
54
92
10
ENDCHAR
STARTCHAR 43
ENCODING 43
SWIDTH 480 0
DWIDTH 8 0
BBX 7 7 0 1
BITMAP
10
10
10
fe
10
10
10
ENDCHAR
STARTCHAR 44
ENCODING 44
SWIDTH 480 0
DWIDTH 8 0
BBX 2 4 2 -2
BITMAP
c0
40
40
80
ENDCHAR
STARTCHAR 45
ENCODING 45
SWIDTH 480 0
DWIDTH 8 0
BBX 6 1 1 4
BITMAP
fc
ENDCHAR
STARTCHAR 46
ENCODING 46
SWIDTH 480 0
DWIDTH 8 0
BBX 2 2 3 0
BITMAP
c0
c0
ENDCHAR
STARTCHAR 47
ENCODING 47
SWIDTH 480 0
DWIDTH 8 0
BBX 6 10 1 0
BITMAP
04
04
08
10
10
20
20
40
80
80
ENDCHAR
STARTCHAR 48
ENCODING 48
SWIDTH 480 0
DWIDTH 8 0
BBX 6 10 1 0
BITMAP
30
48
84
84
84
84
84
84
48
30
ENDCHAR
STARTCHAR 49
ENCODING 49
SWIDTH 480 0
DWIDTH 8 0
BBX 5 10 2 0
BITMAP
20
60
a0
20
20
20
20
20
20
f8
ENDCHAR
STARTCHAR 50
ENCODING 50
SWIDTH 480 0
DWIDTH 8 0
BBX 6 10 1 0
BITMAP
78
84
84
04
18
20
40
80
80
fc
ENDCHAR
STARTCHAR 51
ENCODING 51
SWIDTH 480 0
DWIDTH 8 0
BBX 6 10 1 0
BITMAP
78
84
84
04
38
04
04
84
84
78
ENDCHAR
STARTCHAR 52
ENCODING 52
SWIDTH 480 0
DWIDTH 8 0
BBX 6 10 1 0
BITMAP
08
18
28
48
88
88
fc
08
08
08
ENDCHAR
STARTCHAR 53
ENCODING 53
SWIDTH 480 0
DWIDTH 8 0
BBX 6 10 1 0
BITMAP
fc
80
80
80
f8
04
04
04
84
78
ENDCHAR
STARTCHAR 54
ENCODING 54
SWIDTH 480 0
DWIDTH 8 0
BBX 6 10 1 0
BITMAP
38
40
80
80
f8
84
84
84
84
78
ENDCHAR
STARTCHAR 55
ENCODING 55
SWIDTH 480 0
DWIDTH 8 0
BBX 6 10 1 0
BITMAP
fc
04
04
08
08
08
10
10
10
10
ENDCHAR
STARTCHAR 56
ENCODING 56
SWIDTH 480 0
DWIDTH 8 0
BBX 6 10 1 0
BITMAP
78
84
84
84
78
84
84
84
84
78
ENDCHAR
STARTCHAR 57
ENCODING 57
SWIDTH 480 0
DWIDTH 8 0
BBX 6 10 1 0
BITMAP
78
84
84
84
7c
04
04
04
08
70
ENDCHAR
STARTCHAR 58
ENCODING 58
SWIDTH 480 0
DWIDTH 8 0
BBX 2 7 3 0
BITMAP
c0
c0
00
00
00
c0
c0
ENDCHAR
STARTCHAR 59
ENCODING 59
SWIDTH 480 0
DWIDTH 8 0
BBX 2 9 3 -2
BITMAP
c0
c0
00
00
00
c0
40
40
80
ENDCHAR
STARTCHAR 60
ENCODING 60
SWIDTH 480 0
DWIDTH 8 0
BBX 5 9 1 0
BITMAP
08
10
20
40
80
40
20
10
08
ENDCHAR
STARTCHAR 61
ENCODING 61
SWIDTH 480 0
DWIDTH 8 0
BBX 6 5 1 2
BITMAP
fc
00
00
00
fc
ENDCHAR
STARTCHAR 62
ENCODING 62
SWIDTH 480 0
DWIDTH 8 0
BBX 5 9 1 0
BITMAP
80
40
20
10
08
10
20
40
80
ENDCHAR
STARTCHAR 63
ENCODING 63
SWIDTH 480 0
DWIDTH 8 0
BBX 6 10 1 0
BITMAP
78
84
84
04
08
10
10
00
10
10
ENDCHAR
STARTCHAR 64
ENCODING 64
SWIDTH 480 0
DWIDTH 8 0
BBX 6 10 1 0
BITMAP
38
44
94
ac
a4
a4
a4
9c
40
3c
ENDCHAR
STARTCHAR 65
ENCODING 65
SWIDTH 480 0
DWIDTH 8 0
BBX 6 10 1 0
BITMAP
30
48
84
84
84
fc
84
84
84
84
ENDCHAR
STARTCHAR 66
ENCODING 66
SWIDTH 480 0
DWIDTH 8 0
BBX 6 10 1 0
BITMAP
f8
84
84
84
f8
84
84
84
84
f8
ENDCHAR
STARTCHAR 67
ENCODING 67
SWIDTH 480 0
DWIDTH 8 0
BBX 6 10 1 0
BITMAP
78
84
80
80
80
80
80
80
84
78
ENDCHAR
STARTCHAR 68
ENCODING 68
SWIDTH 480 0
DWIDTH 8 0
BBX 6 10 1 0
BITMAP
f0
88
84
84
84
84
84
84
88
f0
ENDCHAR
STARTCHAR 69
ENCODING 69
SWIDTH 480 0
DWIDTH 8 0
BBX 6 10 1 0
BITMAP
fc
80
80
80
f8
80
80
80
80
fc
ENDCHAR
STARTCHAR 70
ENCODING 70
SWIDTH 480 0
DWIDTH 8 0
BBX 6 10 1 0
BITMAP
fc
80
80
80
f8
80
80
80
80
80
ENDCHAR
STARTCHAR 71
ENCODING 71
SWIDTH 480 0
DWIDTH 8 0
BBX 6 10 1 0
BITMAP
78
84
80
80
80
9c
84
84
8c
74
ENDCHAR
STARTCHAR 72
ENCODING 72
SWIDTH 480 0
DWIDTH 8 0
BBX 6 10 1 0
BITMAP
84
84
84
84
fc
84
84
84
84
84
ENDCHAR
STARTCHAR 73
ENCODING 73
SWIDTH 480 0
DWIDTH 8 0
BBX 5 10 1 0
BITMAP
f8
20
20
20
20
20
20
20
20
f8
ENDCHAR
STARTCHAR 74
ENCODING 74
SWIDTH 480 0
DWIDTH 8 0
BBX 6 10 1 0
BITMAP
1c
08
08
08
08
08
08
88
88
70
ENDCHAR
STARTCHAR 75
ENCODING 75
SWIDTH 480 0
DWIDTH 8 0
BBX 6 10 1 0
BITMAP
84
88
90
a0
c0
c0
a0
90
88
84
ENDCHAR
STARTCHAR 76
ENCODING 76
SWIDTH 480 0
DWIDTH 8 0
BBX 6 10 1 0
BITMAP
80
80
80
80
80
80
80
80
80
fc
ENDCHAR
STARTCHAR 77
ENCODING 77
SWIDTH 480 0
DWIDTH 8 0
BBX 7 10 0 0
BITMAP
82
c6
c6
aa
aa
92
92
82
82
82
ENDCHAR
STARTCHAR 78
ENCODING 78
SWIDTH 480 0
DWIDTH 8 0
BBX 6 10 1 0
BITMAP
84
c4
c4
a4
a4
94
94
8c
8c
84
ENDCHAR
STARTCHAR 79
ENCODING 79
SWIDTH 480 0
DWIDTH 8 0
BBX 6 10 1 0
BITMAP
78
84
84
84
84
84
84
84
84
78
ENDCHAR
STARTCHAR 80
ENCODING 80
SWIDTH 480 0
DWIDTH 8 0
BBX 6 10 1 0
BITMAP
f8
84
84
84
f8
80
80
80
80
80
ENDCHAR
STARTCHAR 81
ENCODING 81
SWIDTH 480 0
DWIDTH 8 0
BBX 7 11 1 -1
BITMAP
78
84
84
84
84
84
84
b4
cc
78
06
ENDCHAR
STARTCHAR 82
ENCODING 82
SWIDTH 480 0
DWIDTH 8 0
BBX 6 10 1 0
BITMAP
f8
84
84
84
f8
90
88
88
84
84
ENDCHAR
STARTCHAR 83
ENCODING 83
SWIDTH 480 0
DWIDTH 8 0
BBX 6 10 1 0
BITMAP
78
84
84
80
60
18
04
84
84
78
ENDCHAR
STARTCHAR 84
ENCODING 84
SWIDTH 480 0
DWIDTH 8 0
BBX 7 10 0 0
BITMAP
fe
10
10
10
10
10
10
10
10
10
ENDCHAR
STARTCHAR 85
ENCODING 85
SWIDTH 480 0
DWIDTH 8 0
BBX 6 10 1 0
BITMAP
84
84
84
84
84
84
84
84
84
78
ENDCHAR
STARTCHAR 86
ENCODING 86
SWIDTH 480 0
DWIDTH 8 0
BBX 7 10 0 0
BITMAP
82
82
82
44
44
44
28
28
10
10
ENDCHAR
STARTCHAR 87
ENCODING 87
SWIDTH 480 0
DWIDTH 8 0
BBX 7 10 0 0
BITMAP
82
82
82
92
92
92
92
aa
aa
44
ENDCHAR
STARTCHAR 88
ENCODING 88
SWIDTH 480 0
DWIDTH 8 0
BBX 6 10 1 0
BITMAP
84
84
48
48
30
30
48
48
84
84
ENDCHAR
STARTCHAR 89
ENCODING 89
SWIDTH 480 0
DWIDTH 8 0
BBX 7 10 0 0
BITMAP
82
82
44
44
28
10
10
10
10
10
ENDCHAR
STARTCHAR 90
ENCODING 90
SWIDTH 480 0
DWIDTH 8 0
BBX 6 10 1 0
BITMAP
fc
04
04
08
10
20
40
80
80
fc
ENDCHAR
STARTCHAR 91
ENCODING 91
SWIDTH 480 0
DWIDTH 8 0
BBX 3 12 3 -1
BITMAP
e0
80
80
80
80
80
80
80
80
80
80
e0
ENDCHAR
STARTCHAR 92
ENCODING 92
SWIDTH 480 0
DWIDTH 8 0
BBX 6 10 1 0
BITMAP
80
80
40
20
20
10
10
08
04
04
ENDCHAR
STARTCHAR 93
ENCODING 93
SWIDTH 480 0
DWIDTH 8 0
BBX 3 12 1 -1
BITMAP
e0
20
20
20
20
20
20
20
20
20
20
e0
ENDCHAR
STARTCHAR 94
ENCODING 94
SWIDTH 480 0
DWIDTH 8 0
BBX 6 3 1 9
BITMAP
30
48
84
ENDCHAR
STARTCHAR 95
ENCODING 95
SWIDTH 480 0
DWIDTH 8 0
BBX 7 1 0 -2
BITMAP
fe
ENDCHAR
STARTCHAR 96
ENCODING 96
SWIDTH 480 0
DWIDTH 8 0
BBX 2 4 3 8
BITMAP
c0
80
80
40
ENDCHAR
STARTCHAR 97
ENCODING 97
SWIDTH 480 0
DWIDTH 8 0
BBX 6 7 1 0
BITMAP
78
84
1c
64
84
8c
74
ENDCHAR
STARTCHAR 98
ENCODING 98
SWIDTH 480 0
DWIDTH 8 0
BBX 6 10 1 0
BITMAP
80
80
80
b8
c4
84
84
84
c4
b8
ENDCHAR
STARTCHAR 99
ENCODING 99
SWIDTH 480 0
DWIDTH 8 0
BBX 6 7 1 0
BITMAP
78
84
80
80
80
84
78
ENDCHAR
STARTCHAR 100
ENCODING 100
SWIDTH 480 0
DWIDTH 8 0
BBX 6 10 1 0
BITMAP
04
04
04
74
8c
84
84
84
8c
74
ENDCHAR
STARTCHAR 101
ENCODING 101
SWIDTH 480 0
DWIDTH 8 0
BBX 6 7 1 0
BITMAP
78
84
84
fc
80
80
78
ENDCHAR
STARTCHAR 102
ENCODING 102
SWIDTH 480 0
DWIDTH 8 0
BBX 6 10 1 0
BITMAP
38
44
40
40
f8
40
40
40
40
40
ENDCHAR
STARTCHAR 103
ENCODING 103
SWIDTH 480 0
DWIDTH 8 0
BBX 6 11 1 -3
BITMAP
04
74
88
88
88
70
40
78
84
84
78
ENDCHAR
STARTCHAR 104
ENCODING 104
SWIDTH 480 0
DWIDTH 8 0
BBX 6 10 1 0
BITMAP
80
80
80
b8
c4
84
84
84
84
84
ENDCHAR
STARTCHAR 105
ENCODING 105
SWIDTH 480 0
DWIDTH 8 0
BBX 5 10 1 0
BITMAP
20
20
00
60
20
20
20
20
20
f8
ENDCHAR
STARTCHAR 106
ENCODING 106
SWIDTH 480 0
DWIDTH 8 0
BBX 5 13 1 -3
BITMAP
08
08
00
18
08
08
08
08
08
08
08
90
60
ENDCHAR
STARTCHAR 107
ENCODING 107
SWIDTH 480 0
DWIDTH 8 0
BBX 6 10 1 0
BITMAP
80
80
80
88
90
a0
e0
90
88
84
ENDCHAR
STARTCHAR 108
ENCODING 108
SWIDTH 480 0
DWIDTH 8 0
BBX 5 10 1 0
BITMAP
60
20
20
20
20
20
20
20
20
f8
ENDCHAR
STARTCHAR 109
ENCODING 109
SWIDTH 480 0
DWIDTH 8 0
BBX 7 7 0 0
BITMAP
ec
92
92
92
92
92
92
ENDCHAR
STARTCHAR 110
ENCODING 110
SWIDTH 480 0
DWIDTH 8 0
BBX 6 7 1 0
BITMAP
b8
c4
84
84
84
84
84
ENDCHAR
STARTCHAR 111
ENCODING 111
SWIDTH 480 0
DWIDTH 8 0
BBX 6 7 1 0
BITMAP
78
84
84
84
84
84
78
ENDCHAR
STARTCHAR 112
ENCODING 112
SWIDTH 480 0
DWIDTH 8 0
BBX 6 10 1 -3
BITMAP
b8
c4
84
84
84
c4
b8
80
80
80
ENDCHAR
STARTCHAR 113
ENCODING 113
SWIDTH 480 0
DWIDTH 8 0
BBX 6 10 1 -3
BITMAP
74
8c
84
84
84
8c
74
04
04
04
ENDCHAR
STARTCHAR 114
ENCODING 114
SWIDTH 480 0
DWIDTH 8 0
BBX 6 7 1 0
BITMAP
b8
c4
80
80
80
80
80
ENDCHAR
STARTCHAR 115
ENCODING 115
SWIDTH 480 0
DWIDTH 8 0
BBX 6 7 1 0
BITMAP
78
84
80
78
04
84
78
ENDCHAR
STARTCHAR 116
ENCODING 116
SWIDTH 480 0
DWIDTH 8 0
BBX 6 10 1 0
BITMAP
20
20
f8
20
20
20
20
20
24
18
ENDCHAR
STARTCHAR 117
ENCODING 117
SWIDTH 480 0
DWIDTH 8 0
BBX 6 7 1 0
BITMAP
84
84
84
84
84
8c
74
ENDCHAR
STARTCHAR 118
ENCODING 118
SWIDTH 480 0
DWIDTH 8 0
BBX 6 7 1 0
BITMAP
84
84
84
48
48
30
30
ENDCHAR
STARTCHAR 119
ENCODING 119
SWIDTH 480 0
DWIDTH 8 0
BBX 7 7 0 0
BITMAP
82
92
92
92
92
aa
44
ENDCHAR
STARTCHAR 120
ENCODING 120
SWIDTH 480 0
DWIDTH 8 0
BBX 6 7 1 0
BITMAP
84
84
48
30
48
84
84
ENDCHAR
STARTCHAR 121
ENCODING 121
SWIDTH 480 0
DWIDTH 8 0
BBX 6 10 1 -3
BITMAP
84
84
84
84
84
4c
34
04
08
70
ENDCHAR
STARTCHAR 122
ENCODING 122
SWIDTH 480 0
DWIDTH 8 0
BBX 6 7 1 0
BITMAP
fc
08
10
20
40
80
fc
ENDCHAR
STARTCHAR 123
ENCODING 123
SWIDTH 480 0
DWIDTH 8 0
BBX 3 12 2 -1
BITMAP
60
80
80
40
40
80
80
40
40
80
80
60
ENDCHAR
STARTCHAR 124
ENCODING 124
SWIDTH 480 0
DWIDTH 8 0
BBX 1 14 3 -2
BITMAP
80
80
80
80
80
80
80
80
80
80
80
80
80
80
ENDCHAR
STARTCHAR 125
ENCODING 125
SWIDTH 480 0
DWIDTH 8 0
BBX 3 12 2 -1
BITMAP
c0
20
20
40
40
20
20
40
40
20
20
c0
ENDCHAR
STARTCHAR 126
ENCODING 126
SWIDTH 480 0
DWIDTH 8 0
BBX 7 3 0 8
BITMAP
62
92
8c
ENDCHAR
STARTCHAR 127
ENCODING 127
SWIDTH 480 0
DWIDTH 8 0
BBX 1 1 0 -3
BITMAP
00
ENDCHAR
STARTCHAR 160
ENCODING 160
SWIDTH 480 0
DWIDTH 8 0
BBX 1 1 0 -3
BITMAP
00
ENDCHAR
STARTCHAR 161
ENCODING 161
SWIDTH 480 0
DWIDTH 8 0
BBX 6 13 1 -3
BITMAP
30
48
84
84
84
fc
84
84
84
84
08
10
0c
ENDCHAR
STARTCHAR 162
ENCODING 162
SWIDTH 480 0
DWIDTH 8 0
BBX 6 3 1 9
BITMAP
84
84
78
ENDCHAR
STARTCHAR 163
ENCODING 163
SWIDTH 480 0
DWIDTH 8 0
BBX 7 10 0 0
BITMAP
40
40
40
50
60
40
c0
40
40
7e
ENDCHAR
STARTCHAR 164
ENCODING 164
SWIDTH 480 0
DWIDTH 8 0
BBX 7 8 0 1
BITMAP
82
44
38
44
44
38
44
82
ENDCHAR
STARTCHAR 165
ENCODING 165
SWIDTH 480 0
DWIDTH 8 0
BBX 6 12 1 0
BITMAP
30
10
90
a0
80
80
80
80
80
80
80
fc
ENDCHAR
STARTCHAR 166
ENCODING 166
SWIDTH 480 0
DWIDTH 8 0
BBX 6 13 1 0
BITMAP
0c
30
00
78
84
84
80
60
18
04
84
84
78
ENDCHAR
STARTCHAR 167
ENCODING 167
SWIDTH 480 0
DWIDTH 8 0
BBX 6 10 1 -1
BITMAP
78
84
80
78
84
84
78
04
84
78
ENDCHAR
STARTCHAR 168
ENCODING 168
SWIDTH 480 0
DWIDTH 8 0
BBX 4 2 2 10
BITMAP
90
90
ENDCHAR
STARTCHAR 169
ENCODING 169
SWIDTH 480 0
DWIDTH 8 0
BBX 6 13 1 0
BITMAP
48
30
00
78
84
84
80
60
18
04
84
84
78
ENDCHAR
STARTCHAR 170
ENCODING 170
SWIDTH 480 0
DWIDTH 8 0
BBX 6 13 1 -3
BITMAP
78
84
84
80
60
18
04
84
84
78
10
10
20
ENDCHAR
STARTCHAR 171
ENCODING 171
SWIDTH 480 0
DWIDTH 8 0
BBX 7 13 0 0
BITMAP
28
10
00
fe
10
10
10
10
10
10
10
10
10
ENDCHAR
STARTCHAR 172
ENCODING 172
SWIDTH 480 0
DWIDTH 8 0
BBX 6 13 1 0
BITMAP
0c
30
00
fc
04
04
08
10
20
40
80
80
fc
ENDCHAR
STARTCHAR 173
ENCODING 173
SWIDTH 480 0
DWIDTH 8 0
BBX 6 1 1 4
BITMAP
fc
ENDCHAR
STARTCHAR 174
ENCODING 174
SWIDTH 480 0
DWIDTH 8 0
BBX 6 13 1 0
BITMAP
48
30
00
fc
04
04
08
10
20
40
80
80
fc
ENDCHAR
STARTCHAR 175
ENCODING 175
SWIDTH 480 0
DWIDTH 8 0
BBX 6 13 1 0
BITMAP
30
30
00
fc
04
04
08
10
20
40
80
80
fc
ENDCHAR
STARTCHAR 176
ENCODING 176
SWIDTH 480 0
DWIDTH 8 0
BBX 4 3 2 9
BITMAP
60
90
60
ENDCHAR
STARTCHAR 177
ENCODING 177
SWIDTH 480 0
DWIDTH 8 0
BBX 6 10 1 -3
BITMAP
78
84
1c
64
84
8c
74
08
10
0c
ENDCHAR
STARTCHAR 178
ENCODING 178
SWIDTH 480 0
DWIDTH 8 0
BBX 4 3 3 -3
BITMAP
40
80
70
ENDCHAR
STARTCHAR 179
ENCODING 179
SWIDTH 480 0
DWIDTH 8 0
BBX 5 10 1 0
BITMAP
60
20
28
30
20
60
a0
20
20
f8
ENDCHAR
STARTCHAR 180
ENCODING 180
SWIDTH 480 0
DWIDTH 8 0
BBX 4 2 2 10
BITMAP
30
c0
ENDCHAR
STARTCHAR 181
ENCODING 181
SWIDTH 480 0
DWIDTH 8 0
BBX 6 11 1 0
BITMAP
0c
64
24
28
20
20
20
20
20
20
f8
ENDCHAR
STARTCHAR 182
ENCODING 182
SWIDTH 480 0
DWIDTH 8 0
BBX 6 11 1 0
BITMAP
08
10
20
00
78
84
80
78
04
84
78
ENDCHAR
STARTCHAR 183
ENCODING 183
SWIDTH 480 0
DWIDTH 8 0
BBX 5 3 1 9
BITMAP
88
50
20
ENDCHAR
STARTCHAR 184
ENCODING 184
SWIDTH 480 0
DWIDTH 8 0
BBX 4 3 2 -3
BITMAP
20
10
e0
ENDCHAR
STARTCHAR 185
ENCODING 185
SWIDTH 480 0
DWIDTH 8 0
BBX 6 10 1 0
BITMAP
48
30
00
78
84
80
78
04
84
78
ENDCHAR
STARTCHAR 186
ENCODING 186
SWIDTH 480 0
DWIDTH 8 0
BBX 6 10 1 -3
BITMAP
78
84
80
78
04
84
78
10
10
20
ENDCHAR
STARTCHAR 187
ENCODING 187
SWIDTH 480 0
DWIDTH 8 0
BBX 7 10 0 0
BITMAP
06
22
22
f4
20
20
20
20
24
18
ENDCHAR
STARTCHAR 188
ENCODING 188
SWIDTH 480 0
DWIDTH 8 0
BBX 6 11 1 0
BITMAP
08
10
20
00
fc
08
10
20
40
80
fc
ENDCHAR
STARTCHAR 189
ENCODING 189
SWIDTH 480 0
DWIDTH 8 0
BBX 6 3 1 9
BITMAP
24
48
90
ENDCHAR
STARTCHAR 190
ENCODING 190
SWIDTH 480 0
DWIDTH 8 0
BBX 6 10 1 0
BITMAP
48
30
00
fc
08
10
20
40
80
fc
ENDCHAR
STARTCHAR 191
ENCODING 191
SWIDTH 480 0
DWIDTH 8 0
BBX 6 10 1 0
BITMAP
30
30
00
fc
08
10
20
40
80
fc
ENDCHAR
STARTCHAR 192
ENCODING 192
SWIDTH 480 0
DWIDTH 8 0
BBX 6 13 1 0
BITMAP
0c
30
00
f8
84
84
84
f8
90
88
88
84
84
ENDCHAR
STARTCHAR 193
ENCODING 193
SWIDTH 480 0
DWIDTH 8 0
BBX 6 13 1 0
BITMAP
0c
30
00
30
48
84
84
84
fc
84
84
84
84
ENDCHAR
STARTCHAR 194
ENCODING 194
SWIDTH 480 0
DWIDTH 8 0
BBX 6 13 1 0
BITMAP
30
48
00
30
48
84
84
84
fc
84
84
84
84
ENDCHAR
STARTCHAR 195
ENCODING 195
SWIDTH 480 0
DWIDTH 8 0
BBX 6 13 1 0
BITMAP
84
78
00
30
48
84
84
84
fc
84
84
84
84
ENDCHAR
STARTCHAR 196
ENCODING 196
SWIDTH 480 0
DWIDTH 8 0
BBX 6 13 1 0
BITMAP
48
48
00
30
48
84
84
84
fc
84
84
84
84
ENDCHAR
STARTCHAR 197
ENCODING 197
SWIDTH 480 0
DWIDTH 8 0
BBX 6 13 1 0
BITMAP
18
60
00
80
80
80
80
80
80
80
80
80
fc
ENDCHAR
STARTCHAR 198
ENCODING 198
SWIDTH 480 0
DWIDTH 8 0
BBX 6 13 1 0
BITMAP
0c
30
00
78
84
80
80
80
80
80
80
84
78
ENDCHAR
STARTCHAR 199
ENCODING 199
SWIDTH 480 0
DWIDTH 8 0
BBX 6 13 1 -3
BITMAP
78
84
80
80
80
80
80
80
84
78
10
08
70
ENDCHAR
STARTCHAR 200
ENCODING 200
SWIDTH 480 0
DWIDTH 8 0
BBX 6 13 1 0
BITMAP
48
30
00
78
84
80
80
80
80
80
80
84
78
ENDCHAR
STARTCHAR 201
ENCODING 201
SWIDTH 480 0
DWIDTH 8 0
BBX 6 13 1 0
BITMAP
0c
30
00
fc
80
80
80
f8
80
80
80
80
fc
ENDCHAR
STARTCHAR 202
ENCODING 202
SWIDTH 480 0
DWIDTH 8 0
BBX 6 13 1 -3
BITMAP
fc
80
80
80
f8
80
80
80
80
fc
08
10
0c
ENDCHAR
STARTCHAR 203
ENCODING 203
SWIDTH 480 0
DWIDTH 8 0
BBX 6 13 1 0
BITMAP
48
48
00
fc
80
80
80
f8
80
80
80
80
fc
ENDCHAR
STARTCHAR 204
ENCODING 204
SWIDTH 480 0
DWIDTH 8 0
BBX 6 13 1 0
BITMAP
48
30
00
fc
80
80
80
f8
80
80
80
80
fc
ENDCHAR
STARTCHAR 205
ENCODING 205
SWIDTH 480 0
DWIDTH 8 0
BBX 5 13 1 0
BITMAP
18
60
00
f8
20
20
20
20
20
20
20
20
f8
ENDCHAR
STARTCHAR 206
ENCODING 206
SWIDTH 480 0
DWIDTH 8 0
BBX 5 13 1 0
BITMAP
70
88
00
f8
20
20
20
20
20
20
20
20
f8
ENDCHAR
STARTCHAR 207
ENCODING 207
SWIDTH 480 0
DWIDTH 8 0
BBX 6 13 1 0
BITMAP
48
30
00
f0
88
84
84
84
84
84
84
88
f0
ENDCHAR
STARTCHAR 208
ENCODING 208
SWIDTH 480 0
DWIDTH 8 0
BBX 7 10 0 0
BITMAP
78
44
42
42
f2
42
42
42
44
78
ENDCHAR
STARTCHAR 209
ENCODING 209
SWIDTH 480 0
DWIDTH 8 0
BBX 6 13 1 0
BITMAP
0c
30
00
84
c4
c4
a4
a4
94
94
8c
8c
84
ENDCHAR
STARTCHAR 210
ENCODING 210
SWIDTH 480 0
DWIDTH 8 0
BBX 6 13 1 0
BITMAP
48
30
00
84
c4
c4
a4
a4
94
94
8c
8c
84
ENDCHAR
STARTCHAR 211
ENCODING 211
SWIDTH 480 0
DWIDTH 8 0
BBX 6 13 1 0
BITMAP
0c
30
00
78
84
84
84
84
84
84
84
84
78
ENDCHAR
STARTCHAR 212
ENCODING 212
SWIDTH 480 0
DWIDTH 8 0
BBX 6 13 1 0
BITMAP
30
48
00
78
84
84
84
84
84
84
84
84
78
ENDCHAR
STARTCHAR 213
ENCODING 213
SWIDTH 480 0
DWIDTH 8 0
BBX 6 13 1 0
BITMAP
24
48
00
78
84
84
84
84
84
84
84
84
78
ENDCHAR
STARTCHAR 214
ENCODING 214
SWIDTH 480 0
DWIDTH 8 0
BBX 6 13 1 0
BITMAP
48
48
00
78
84
84
84
84
84
84
84
84
78
ENDCHAR
STARTCHAR 215
ENCODING 215
SWIDTH 480 0
DWIDTH 8 0
BBX 6 6 1 1
BITMAP
84
48
30
30
48
84
ENDCHAR
STARTCHAR 216
ENCODING 216
SWIDTH 480 0
DWIDTH 8 0
BBX 6 13 1 0
BITMAP
48
30
00
f8
84
84
84
f8
90
88
88
84
84
ENDCHAR
STARTCHAR 217
ENCODING 217
SWIDTH 480 0
DWIDTH 8 0
BBX 6 13 1 0
BITMAP
30
48
30
84
84
84
84
84
84
84
84
84
78
ENDCHAR
STARTCHAR 218
ENCODING 218
SWIDTH 480 0
DWIDTH 8 0
BBX 6 13 1 0
BITMAP
0c
30
00
84
84
84
84
84
84
84
84
84
78
ENDCHAR
STARTCHAR 219
ENCODING 219
SWIDTH 480 0
DWIDTH 8 0
BBX 6 13 1 0
BITMAP
24
48
00
84
84
84
84
84
84
84
84
84
78
ENDCHAR
STARTCHAR 220
ENCODING 220
SWIDTH 480 0
DWIDTH 8 0
BBX 6 13 1 0
BITMAP
48
48
00
84
84
84
84
84
84
84
84
84
78
ENDCHAR
STARTCHAR 221
ENCODING 221
SWIDTH 480 0
DWIDTH 8 0
BBX 7 13 0 0
BITMAP
06
18
00
82
82
44
44
28
10
10
10
10
10
ENDCHAR
STARTCHAR 222
ENCODING 222
SWIDTH 480 0
DWIDTH 8 0
BBX 7 13 0 -3
BITMAP
fe
10
10
10
10
10
10
10
10
10
08
08
10
ENDCHAR
STARTCHAR 223
ENCODING 223
SWIDTH 480 0
DWIDTH 8 0
BBX 7 11 0 -2
BITMAP
38
44
44
44
c8
44
42
42
62
5c
80
ENDCHAR
STARTCHAR 224
ENCODING 224
SWIDTH 480 0
DWIDTH 8 0
BBX 6 11 1 0
BITMAP
08
10
20
00
b8
c4
80
80
80
80
80
ENDCHAR
STARTCHAR 225
ENCODING 225
SWIDTH 480 0
DWIDTH 8 0
BBX 6 11 1 0
BITMAP
08
10
20
00
78
84
1c
64
84
8c
74
ENDCHAR
STARTCHAR 226
ENCODING 226
SWIDTH 480 0
DWIDTH 8 0
BBX 6 11 1 0
BITMAP
10
28
44
00
78
84
1c
64
84
8c
74
ENDCHAR
STARTCHAR 227
ENCODING 227
SWIDTH 480 0
DWIDTH 8 0
BBX 6 10 1 0
BITMAP
84
78
00
78
84
1c
64
84
8c
74
ENDCHAR
STARTCHAR 228
ENCODING 228
SWIDTH 480 0
DWIDTH 8 0
BBX 6 11 1 0
BITMAP
48
48
00
00
78
84
1c
64
84
8c
74
ENDCHAR
STARTCHAR 229
ENCODING 229
SWIDTH 480 0
DWIDTH 8 0
BBX 5 13 1 0
BITMAP
18
60
00
60
20
20
20
20
20
20
20
20
f8
ENDCHAR
STARTCHAR 230
ENCODING 230
SWIDTH 480 0
DWIDTH 8 0
BBX 6 11 1 0
BITMAP
08
10
20
00
78
84
80
80
80
84
78
ENDCHAR
STARTCHAR 231
ENCODING 231
SWIDTH 480 0
DWIDTH 8 0
BBX 6 10 1 -3
BITMAP
78
84
80
80
80
84
78
10
08
70
ENDCHAR
STARTCHAR 232
ENCODING 232
SWIDTH 480 0
DWIDTH 8 0
BBX 6 10 1 0
BITMAP
48
30
00
78
84
80
80
80
84
78
ENDCHAR
STARTCHAR 233
ENCODING 233
SWIDTH 480 0
DWIDTH 8 0
BBX 6 11 1 0
BITMAP
08
10
20
00
78
84
84
fc
80
80
78
ENDCHAR
STARTCHAR 234
ENCODING 234
SWIDTH 480 0
DWIDTH 8 0
BBX 6 10 1 -3
BITMAP
78
84
84
fc
80
80
78
10
20
18
ENDCHAR
STARTCHAR 235
ENCODING 235
SWIDTH 480 0
DWIDTH 8 0
BBX 6 10 1 0
BITMAP
48
48
00
78
84
84
fc
80
80
78
ENDCHAR
STARTCHAR 236
ENCODING 236
SWIDTH 480 0
DWIDTH 8 0
BBX 6 10 1 0
BITMAP
48
30
00
78
84
84
fc
80
80
78
ENDCHAR
STARTCHAR 237
ENCODING 237
SWIDTH 480 0
DWIDTH 8 0
BBX 5 11 1 0
BITMAP
10
20
40
00
60
20
20
20
20
20
f8
ENDCHAR
STARTCHAR 238
ENCODING 238
SWIDTH 480 0
DWIDTH 8 0
BBX 5 11 1 0
BITMAP
20
50
88
00
60
20
20
20
20
20
f8
ENDCHAR
STARTCHAR 239
ENCODING 239
SWIDTH 480 0
DWIDTH 8 0
BBX 8 12 0 0
BITMAP
03
01
05
06
04
74
8c
84
84
84
8c
74
ENDCHAR
STARTCHAR 240
ENCODING 240
SWIDTH 480 0
DWIDTH 8 0
BBX 7 10 0 0
BITMAP
04
1e
04
74
8c
84
84
84
8c
74
ENDCHAR
STARTCHAR 241
ENCODING 241
SWIDTH 480 0
DWIDTH 8 0
BBX 6 11 1 0
BITMAP
08
10
20
00
b8
c4
84
84
84
84
84
ENDCHAR
STARTCHAR 242
ENCODING 242
SWIDTH 480 0
DWIDTH 8 0
BBX 6 10 1 0
BITMAP
48
30
00
b8
c4
84
84
84
84
84
ENDCHAR
STARTCHAR 243
ENCODING 243
SWIDTH 480 0
DWIDTH 8 0
BBX 6 11 1 0
BITMAP
08
10
20
00
78
84
84
84
84
84
78
ENDCHAR
STARTCHAR 244
ENCODING 244
SWIDTH 480 0
DWIDTH 8 0
BBX 6 10 1 0
BITMAP
30
48
00
78
84
84
84
84
84
78
ENDCHAR
STARTCHAR 245
ENCODING 245
SWIDTH 480 0
DWIDTH 8 0
BBX 7 11 1 0
BITMAP
12
24
48
00
78
84
84
84
84
84
78
ENDCHAR
STARTCHAR 246
ENCODING 246
SWIDTH 480 0
DWIDTH 8 0
BBX 6 11 1 0
BITMAP
48
48
00
00
78
84
84
84
84
84
78
ENDCHAR
STARTCHAR 247
ENCODING 247
SWIDTH 480 0
DWIDTH 8 0
BBX 6 7 1 1
BITMAP
30
00
00
fc
00
00
30
ENDCHAR
STARTCHAR 248
ENCODING 248
SWIDTH 480 0
DWIDTH 8 0
BBX 6 10 1 0
BITMAP
48
30
00
b8
c4
80
80
80
80
80
ENDCHAR
STARTCHAR 249
ENCODING 249
SWIDTH 480 0
DWIDTH 8 0
BBX 6 11 1 0
BITMAP
30
48
30
00
84
84
84
84
84
8c
74
ENDCHAR
STARTCHAR 250
ENCODING 250
SWIDTH 480 0
DWIDTH 8 0
BBX 6 11 1 0
BITMAP
08
10
20
00
84
84
84
84
84
8c
74
ENDCHAR
STARTCHAR 251
ENCODING 251
SWIDTH 480 0
DWIDTH 8 0
BBX 7 11 1 0
BITMAP
12
24
48
00
84
84
84
84
84
8c
74
ENDCHAR
STARTCHAR 252
ENCODING 252
SWIDTH 480 0
DWIDTH 8 0
BBX 6 11 1 0
BITMAP
48
48
00
00
84
84
84
84
84
8c
74
ENDCHAR
STARTCHAR 253
ENCODING 253
SWIDTH 480 0
DWIDTH 8 0
BBX 6 14 1 -3
BITMAP
08
10
20
00
84
84
84
84
84
4c
34
04
08
70
ENDCHAR
STARTCHAR 254
ENCODING 254
SWIDTH 480 0
DWIDTH 8 0
BBX 6 12 1 -3
BITMAP
20
20
f8
20
20
20
20
24
18
10
10
20
ENDCHAR
STARTCHAR 255
ENCODING 255
SWIDTH 480 0
DWIDTH 8 0
BBX 2 2 3 9
BITMAP
c0
c0
ENDCHAR
ENDFONT
